<?xml version="1.0" encoding="utf-8"?>
<!-- Generator: Adobe Illustrator 18.1.1, SVG Export Plug-In . SVG Version: 6.00 Build 0)  -->
<svg version="1.0" xmlns="http://www.w3.org/2000/svg" xmlns:xlink="http://www.w3.org/1999/xlink" x="0px" y="0px"
	 viewBox="0 0 566.9 566.9" enable-background="new 0 0 566.9 566.9" xml:space="preserve">
<g id="Layer_2" display="none">
	
		<rect x="0" y="0" display="inline" fill="#00AEEF" stroke="#FFFFFF" stroke-width="3" stroke-miterlimit="10" width="566.9" height="566.9"/>
</g>
<g id="Layer_1">
	<g>
		<path fill="none" stroke="#FFFFFF" stroke-width="3" stroke-miterlimit="10" d="M376.8,485.8H190.1c-20.1,0-36.3-16.3-36.3-36.3
			V294.6c0-20.1,16.3-36.3,36.3-36.3h186.7c20.1,0,36.3,16.3,36.3,36.3v154.9C413.1,469.5,396.9,485.8,376.8,485.8z"/>
		<path fill="none" stroke="#FFFFFF" stroke-width="3" stroke-miterlimit="10" d="M185.1,147.3c0-52.4,41.6-95,92.8-95
			s92.8,42.5,92.8,95"/>
		<line fill="none" stroke="#FFFFFF" stroke-width="3" stroke-miterlimit="10" x1="370.8" y1="147.3" x2="370.8" y2="258.3"/>
		<path fill="none" stroke="#FFFFFF" stroke-width="3" stroke-miterlimit="10" d="M213.4,147.3c0-36.5,28.9-66.1,64.6-66.1
			s64.6,29.6,64.6,66.1"/>
		<line fill="none" stroke="#FFFFFF" stroke-width="3" stroke-miterlimit="10" x1="342.6" y1="147.3" x2="342.6" y2="258.3"/>
		<line fill="none" stroke="#FFFFFF" stroke-width="3" stroke-miterlimit="10" x1="185.1" y1="147.3" x2="185.1" y2="202.8"/>
		<line fill="none" stroke="#FFFFFF" stroke-width="3" stroke-miterlimit="10" x1="185.1" y1="202.8" x2="213.4" y2="202.8"/>
		<line fill="none" stroke="#FFFFFF" stroke-width="3" stroke-miterlimit="10" x1="213.4" y1="202.8" x2="213.4" y2="147.3"/>
		<path fill="none" stroke="#FFFFFF" stroke-width="3" stroke-miterlimit="10" d="M269.5,370.1c-5.1-2.9-8.5-8.4-8.5-14.7
			c0-9.4,7.6-17,17-17s17,7.6,17,17c0,6.3-3.4,11.8-8.5,14.7"/>
		<polyline fill="none" stroke="#FFFFFF" stroke-width="3" stroke-miterlimit="10" points="286.5,370.1 286.5,401.2 269.5,401.2 
			269.5,370.1 		"/>
	</g>
</g>
</svg>
