<?xml version="1.0" encoding="utf-8"?>
<!-- Generator: Adobe Illustrator 18.1.1, SVG Export Plug-In . SVG Version: 6.00 Build 0)  -->
<svg version="1.0" id="Layer_1" xmlns="http://www.w3.org/2000/svg" xmlns:xlink="http://www.w3.org/1999/xlink" x="0px" y="0px"
	 viewBox="0 0 193.8 193.8" enable-background="new 0 0 193.8 193.8" xml:space="preserve">
<path fill="none" stroke="#FFFFFF" stroke-miterlimit="10" d="M287.7,111.6"/>
<g>
	<path fill="none" stroke="#FFFFFF" stroke-miterlimit="10" d="M137,91.6L137,105c0,4.1-3.4,7.5-7.5,7.4l-102.5-0.6
		c-4.1,0-7.5-3.4-7.4-7.5l0.4-58.4c0-4.1,3.4-7.5,7.5-7.4L129.9,39c4.1,0,7.5,3.4,7.4,7.5l-0.1,16.3"/>
	
		<rect x="72.9" y="112.1" transform="matrix(1 6.165199e-03 -6.165199e-03 1 0.7467 -0.4794)" fill="none" stroke="#FFFFFF" stroke-miterlimit="10" width="10.4" height="17.6"/>
	<path fill="none" stroke="#FFFFFF" stroke-miterlimit="10" d="M165.3,129.7l12.5,0c3,0,5.4,2.4,5.4,5.4l0,8.6c0,3-2.4,5.4-5.4,5.4
		l-157.3-0.3c-3,0-5.4-2.4-5.4-5.4l0-8.6c0-3,2.4-5.4,5.4-5.4l116.8,0.3"/>
	<polyline fill="none" stroke="#FFFFFF" stroke-miterlimit="10" points="124.1,86.1 124,104.3 32.5,103.7 32.8,46.5 124.4,47.1 
		124.3,64.3 	"/>
	<g>
		<path fill="none" stroke="#FFFFFF" stroke-miterlimit="10" d="M124.3,63.9c-5.8,1.3-11.9,4-14.7,9.7l22.8,19.5
			c16.9-4.1,18.1-19.6,18.1-19.6l-11.7-10.6C138.8,62.9,131.7,62.3,124.3,63.9"/>
		<path fill="none" stroke="#FFFFFF" stroke-miterlimit="10" d="M150.5,73.5c0,0,6-6.3,5-9.2s-11.4-3.9-16.6-1.4"/>
		<path fill="none" stroke="#FFFFFF" stroke-miterlimit="10" d="M155.4,64.3"/>
		<path fill="none" stroke="#FFFFFF" stroke-miterlimit="10" d="M123.4,80.4c3.9,3,7.5,7.1,9,12.8"/>
		<path fill="none" stroke="#FFFFFF" stroke-miterlimit="10" d="M109.5,73.6c0,0,7.3,1.8,13.8,6.8"/>
		<path fill="none" stroke="#FFFFFF" stroke-miterlimit="10" d="M161.4,121.1c3.7-13,14.2-51.9,11.4-58.9
			c-3.4-8.5-16.1-0.1-16.1-0.1l-3.9,0.2"/>
		<path fill="none" stroke="#FFFFFF" stroke-miterlimit="10" d="M161.3,121.9c0,0-1.6,5.8,0.5,6.7c28,10.9-13.6,11.2-27.9,6
			c-14.3-5.2,22.4-6.4,22.4-6.4s16-54.6,12.6-63.2c0,0,0.7-7.5-13.3,1.1l-1.3,2.2l-2.6,3.6"/>
		<path fill="none" stroke="#FFFFFF" stroke-miterlimit="10" d="M161.6,120.5"/>
		<line fill="none" stroke="#FFFFFF" stroke-miterlimit="10" x1="161.2" y1="122.4" x2="161.7" y2="120"/>
	</g>
	<path fill="none" stroke="#FFFFFF" stroke-miterlimit="10" d="M137.3,51.6"/>
</g>
<path fill="none" stroke="#FFFFFF" stroke-miterlimit="10" d="M-169.5-7.9"/>
</svg>
